<svg width="377" height="316" viewBox="0 0 377 316" fill="none" xmlns="http://www.w3.org/2000/svg">
<g filter="url(#filter0_d_2_144)">
<path d="M48 14C48 8.47716 52.4772 4 58 4H319C324.523 4 329 8.47715 329 14V214C329 219.523 324.523 224 319 224H58C52.4772 224 48 219.523 48 214V14Z" fill="white"/>
</g>
<rect x="157" y="82" width="63" height="48" rx="4" fill="#F2F2FA"/>
<path d="M188.093 114.874C190.501 112.655 192.022 109.486 192.022 106C192.022 102.451 190.501 99.2814 188.093 97.1263C185.938 95.2248 183.149 94.0205 180.043 94.0205C173.388 94.0205 168 99.4081 168 106C168 112.655 173.388 118.043 180.043 118.043C183.149 117.98 185.938 116.775 188.093 114.874Z" fill="#3362AB"/>
<path d="M188.092 114.874C190.501 112.655 192.022 109.486 192.022 106C192.022 102.45 190.501 99.2813 188.092 97.1262" fill="#3362AB"/>
<path d="M188.092 114.874C190.501 112.655 192.022 109.486 192.022 106C192.022 102.45 190.501 99.2813 188.092 97.1262" stroke="#3362AB" stroke-width="0.3097"/>
<path d="M196.143 93.957C193.037 93.957 190.185 95.1613 188.093 97.0628C187.649 97.4431 187.269 97.8868 186.889 98.3305H189.297C189.614 98.7108 189.931 99.1545 190.185 99.5982H185.938C185.685 99.9785 185.431 100.422 185.241 100.866H190.882C191.072 101.31 191.262 101.69 191.389 102.134H184.734C184.607 102.577 184.48 102.958 184.353 103.401H191.706C191.896 104.225 191.96 105.049 191.96 105.937C191.96 107.268 191.769 108.535 191.326 109.74H184.67C184.797 110.183 184.987 110.627 185.177 111.007H190.819C190.628 111.451 190.375 111.895 190.121 112.275H185.875C186.128 112.719 186.445 113.162 186.762 113.543H189.171C188.79 113.986 188.41 114.43 187.966 114.81C190.121 116.712 192.91 117.916 196.016 117.916C202.671 117.916 207.996 112.528 207.996 105.873C208.186 99.3446 202.798 93.957 196.143 93.957Z" fill="#C9191B"/>
<path d="M178.522 108.916H177.001L177.888 104.225L175.86 108.916H174.529L174.275 104.289L173.388 108.916H172.057L173.198 102.831H175.543L175.67 106.634L177.318 102.831H179.726L178.522 108.916Z" fill="white"/>
<path d="M195.255 108.915C194.875 109.042 194.495 109.106 194.178 109.106C193.417 109.106 192.973 108.725 192.973 108.028C192.973 107.901 192.973 107.711 193.037 107.584L193.1 107.077L193.164 106.697L193.861 102.894H195.319L195.128 104.035H195.889L195.699 105.239H194.938L194.558 107.331C194.558 107.394 194.558 107.521 194.558 107.521C194.558 107.775 194.748 107.901 195.065 107.901C195.255 107.901 195.382 107.901 195.445 107.838L195.255 108.915Z" fill="white"/>
<path d="M199.566 104.035C199.439 103.972 199.439 103.972 199.375 103.972C199.312 103.972 199.249 103.972 199.249 103.972C199.185 103.972 199.122 103.972 199.058 103.972C198.551 103.972 198.235 104.162 197.727 104.796L197.854 104.035H196.65L195.763 108.979H197.284C197.791 105.937 198.044 105.429 198.742 105.429C198.805 105.429 198.868 105.429 198.932 105.429L199.122 105.493L199.566 104.035Z" fill="white"/>
<path d="M189.296 105.556C189.296 106.19 189.677 106.634 190.437 106.951C191.071 107.204 191.135 107.268 191.135 107.521C191.135 107.838 190.881 107.965 190.247 107.965C189.804 107.965 189.36 107.901 188.916 107.775L188.726 108.916H188.789L189.043 108.979C189.106 108.979 189.296 109.042 189.423 109.042C189.804 109.042 190.057 109.106 190.247 109.106C191.832 109.106 192.592 108.599 192.592 107.458C192.592 106.76 192.275 106.38 191.515 106.063C190.881 105.81 190.818 105.746 190.818 105.493C190.818 105.239 191.071 105.112 191.578 105.112C191.895 105.112 192.275 105.112 192.656 105.176L192.846 104.035C192.466 103.972 191.895 103.908 191.515 103.908C189.867 103.908 189.296 104.669 189.296 105.556Z" fill="white"/>
<path d="M182.325 106.76C182.135 106.76 182.072 106.76 182.008 106.76C181.184 106.76 180.741 107.014 180.741 107.521C180.741 107.838 180.931 108.028 181.248 108.028C181.818 107.965 182.262 107.458 182.325 106.76ZM183.403 108.916H182.135L182.198 108.408C181.818 108.789 181.311 108.979 180.614 108.979C179.79 108.979 179.283 108.408 179.283 107.648C179.283 106.444 180.234 105.746 181.882 105.746C182.072 105.746 182.262 105.746 182.515 105.81C182.579 105.62 182.579 105.556 182.579 105.493C182.579 105.176 182.325 105.049 181.628 105.049C181.184 105.049 180.741 105.112 180.424 105.176L180.234 105.239L180.107 105.303L180.297 104.162C181.058 103.972 181.501 103.908 182.072 103.908C183.339 103.908 184.037 104.415 184.037 105.366C184.037 105.62 184.037 105.81 183.91 106.317L183.593 108.092L183.53 108.408L183.466 108.662V108.852L183.403 108.916Z" fill="white"/>
<path d="M187.522 105.873C187.522 105.746 187.522 105.683 187.522 105.62C187.522 105.239 187.268 104.986 186.825 104.986C186.318 104.986 186.001 105.303 185.874 105.873H187.522ZM188.283 108.852C187.775 108.979 187.268 109.042 186.761 109.042C185.113 109.042 184.226 108.282 184.226 106.824C184.226 105.113 185.304 103.845 186.825 103.845C188.029 103.845 188.853 104.542 188.853 105.62C188.853 106 188.79 106.317 188.663 106.824H185.684C185.684 106.887 185.684 106.951 185.684 106.951C185.684 107.521 186.127 107.838 187.015 107.838C187.522 107.838 188.029 107.711 188.599 107.521L188.283 108.852Z" fill="white"/>
<path d="M202.671 106.063C202.671 105.556 202.481 105.049 201.847 105.049C201.087 105.049 200.643 105.936 200.643 106.76C200.643 107.458 200.96 107.901 201.53 107.901C201.847 107.901 202.544 107.458 202.671 106.697C202.671 106.507 202.671 106.253 202.671 106.063ZM204.256 106.697C204.002 108.345 202.861 109.106 201.34 109.106C199.629 109.106 198.995 108.092 198.995 106.824C198.995 105.049 200.136 103.908 201.911 103.908C203.495 103.908 204.256 104.859 204.256 106.127C204.319 106.38 204.319 106.38 204.256 106.697Z" fill="white"/>
<rect x="157" y="148" width="63" height="48" rx="4" fill="#F2F2FA"/>
<path d="M183.31 171.218C183.206 171.999 182.581 171.999 182.008 171.999H181.696L181.956 170.489C181.956 170.385 182.061 170.332 182.165 170.332H182.321C182.737 170.332 183.102 170.332 183.31 170.541C183.31 170.749 183.31 170.957 183.31 171.218ZM183.05 169.135H180.811C180.655 169.135 180.55 169.239 180.498 169.395L179.613 175.123C179.613 175.227 179.665 175.331 179.821 175.331H180.863C181.019 175.331 181.123 175.227 181.175 175.071L181.436 173.509C181.436 173.353 181.592 173.248 181.748 173.248H182.477C183.935 173.248 184.768 172.519 185.029 171.114C185.133 170.489 185.029 170.02 184.768 169.655C184.352 169.343 183.779 169.135 183.05 169.135Z" fill="#263577"/>
<path d="M188.205 173.301C188.101 173.925 187.632 174.342 187.007 174.342C186.695 174.342 186.435 174.238 186.278 174.03C186.122 173.821 186.07 173.561 186.122 173.301C186.226 172.676 186.695 172.259 187.32 172.259C187.632 172.259 187.893 172.363 188.049 172.572C188.153 172.728 188.257 172.988 188.205 173.301ZM189.663 171.218H188.622C188.518 171.218 188.465 171.27 188.413 171.374L188.361 171.686L188.309 171.582C188.101 171.27 187.58 171.114 187.06 171.114C185.862 171.114 184.872 171.999 184.664 173.249C184.56 173.873 184.716 174.446 185.081 174.863C185.393 175.227 185.862 175.383 186.435 175.383C187.372 175.383 187.893 174.759 187.893 174.759L187.841 175.071C187.841 175.175 187.893 175.279 188.049 175.279H188.986C189.142 175.279 189.247 175.175 189.299 175.019L189.871 171.374C189.871 171.322 189.819 171.218 189.663 171.218Z" fill="#263577"/>
<path d="M195.338 171.218H194.244C194.14 171.218 194.036 171.27 193.984 171.374L192.526 173.561L191.901 171.478C191.849 171.322 191.745 171.27 191.588 171.27H190.547C190.443 171.27 190.339 171.374 190.391 171.53L191.588 174.967L190.495 176.529C190.391 176.633 190.495 176.842 190.651 176.842H191.745C191.849 176.842 191.953 176.79 192.005 176.685L195.546 171.53C195.598 171.374 195.494 171.218 195.338 171.218Z" fill="#263577"/>
<path d="M199.14 171.218C199.035 171.999 198.411 171.999 197.838 171.999H197.525L197.786 170.489C197.786 170.385 197.89 170.332 197.994 170.332H198.15C198.567 170.332 198.931 170.332 199.14 170.541C199.192 170.749 199.192 170.957 199.14 171.218ZM198.879 169.135H196.64C196.484 169.135 196.38 169.239 196.328 169.395L195.442 175.123C195.442 175.227 195.494 175.331 195.651 175.331H196.796C196.9 175.331 197.005 175.279 197.005 175.123L197.265 173.509C197.265 173.353 197.421 173.248 197.577 173.248H198.306C199.764 173.248 200.598 172.519 200.858 171.114C200.962 170.489 200.858 170.02 200.598 169.655C200.233 169.343 199.66 169.135 198.879 169.135Z" fill="#2199D6"/>
<path d="M204.086 173.301C203.982 173.925 203.514 174.342 202.889 174.342C202.576 174.342 202.316 174.238 202.16 174.03C202.004 173.821 201.952 173.561 202.004 173.301C202.108 172.676 202.576 172.259 203.201 172.259C203.514 172.259 203.774 172.363 203.93 172.572C204.034 172.728 204.139 172.988 204.086 173.301ZM205.545 171.218H204.503C204.399 171.218 204.347 171.27 204.295 171.374L204.243 171.686L204.191 171.582C203.982 171.27 203.462 171.114 202.941 171.114C201.743 171.114 200.754 171.999 200.546 173.249C200.441 173.873 200.598 174.446 200.962 174.863C201.275 175.227 201.743 175.383 202.316 175.383C203.253 175.383 203.774 174.759 203.774 174.759L203.722 175.071C203.722 175.175 203.774 175.279 203.93 175.279H204.868C205.024 175.279 205.128 175.175 205.18 175.019L205.753 171.374C205.753 171.322 205.649 171.218 205.545 171.218Z" fill="#2199D6"/>
<path d="M206.793 169.291L205.856 175.123C205.856 175.227 205.908 175.331 206.064 175.331H207.001C207.158 175.331 207.262 175.227 207.314 175.071L208.199 169.343C208.199 169.239 208.147 169.135 207.991 169.135H206.949C206.897 169.135 206.845 169.239 206.793 169.291Z" fill="#2199D6"/>
<path d="M170.343 176.425L170.5 175.331H170.135H168.312L169.562 167.364C169.562 167.364 169.562 167.312 169.614 167.312H169.666H172.739C173.728 167.312 174.457 167.521 174.822 167.937C174.978 168.145 175.082 168.354 175.134 168.562C175.186 168.822 175.186 169.083 175.134 169.447V169.656L175.29 169.76C175.446 169.812 175.551 169.916 175.655 170.02C175.811 170.176 175.915 170.385 175.915 170.645C175.967 170.905 175.967 171.218 175.863 171.582C175.759 171.999 175.655 172.311 175.498 172.624C175.342 172.884 175.134 173.092 174.926 173.301C174.717 173.457 174.405 173.561 174.145 173.665C173.832 173.717 173.52 173.769 173.155 173.769H172.895C172.739 173.769 172.582 173.821 172.426 173.925C172.322 174.03 172.218 174.186 172.166 174.342V174.446L171.853 176.373V176.425V176.477C171.853 176.477 171.853 176.477 171.801 176.477H170.343V176.425Z" fill="#263577"/>
<path d="M175.499 169.447C175.499 169.499 175.499 169.551 175.447 169.603C175.03 171.686 173.676 172.363 171.906 172.363H171.02C170.812 172.363 170.604 172.52 170.604 172.728L170.135 175.644L170.031 176.477C170.031 176.633 170.135 176.737 170.239 176.737H171.854C172.062 176.737 172.218 176.581 172.218 176.425V176.321L172.53 174.446V174.342C172.583 174.134 172.739 174.03 172.895 174.03H173.155C174.718 174.03 175.915 173.405 176.228 171.582C176.384 170.801 176.28 170.176 175.915 169.76C175.811 169.656 175.655 169.551 175.499 169.447Z" fill="#2199D6"/>
<path d="M175.082 169.291C175.03 169.291 174.978 169.239 174.874 169.239C174.822 169.239 174.718 169.187 174.665 169.187C174.405 169.135 174.145 169.135 173.884 169.135H171.489C171.437 169.135 171.385 169.135 171.333 169.187C171.229 169.239 171.125 169.343 171.125 169.447L170.604 172.676V172.78C170.656 172.572 170.812 172.415 171.02 172.415H171.906C173.676 172.415 175.03 171.686 175.447 169.655C175.447 169.603 175.447 169.551 175.499 169.499C175.394 169.447 175.29 169.395 175.186 169.343C175.134 169.291 175.082 169.291 175.082 169.291Z" fill="#252C5E"/>
<path d="M171.124 169.447C171.124 169.343 171.228 169.239 171.333 169.187C171.385 169.187 171.437 169.135 171.489 169.135H173.884C174.145 169.135 174.457 169.135 174.665 169.187C174.717 169.187 174.822 169.187 174.874 169.239C174.926 169.239 174.978 169.291 175.082 169.291C175.134 169.291 175.134 169.291 175.186 169.343C175.29 169.395 175.394 169.447 175.498 169.499C175.603 168.718 175.498 168.198 175.082 167.729C174.613 167.208 173.78 167 172.739 167H169.666C169.458 167 169.25 167.156 169.25 167.365L168 175.384C168 175.54 168.104 175.696 168.26 175.696H170.135L170.604 172.676L171.124 169.447Z" fill="#263577"/>
<rect x="76" y="82" width="63" height="48" rx="4" fill="#F2F2FA"/>
<path d="M128 106C128 112.585 122.646 118 116 118C109.415 118 104 112.585 104 106C104 99.4154 109.354 94 115.938 94C122.646 94 128 99.4154 128 106Z" fill="#F9B50B"/>
<path d="M111.938 106.062C111.938 105.2 111.815 104.338 111.692 103.538H104.308C104.369 103.108 104.492 102.738 104.615 102.246H111.2C111.077 101.815 110.892 101.385 110.708 100.954H105.108C105.292 100.523 105.538 100.154 105.785 99.6615H110.031C109.785 99.2308 109.477 98.8 109.108 98.3692H106.769C107.138 97.9385 107.508 97.5692 108 97.1385C105.908 95.1692 103.077 94 99.9385 94C93.4154 94.1846 88 99.4154 88 106C88 112.585 93.3538 118 100 118C103.138 118 105.908 116.769 108.062 114.862C108.492 114.492 108.862 114.062 109.292 113.569H106.831C106.523 113.2 106.215 112.769 105.969 112.338H110.154C110.4 111.969 110.646 111.538 110.831 111.046H105.231C105.046 110.677 104.862 110.246 104.738 109.754H111.323C111.692 108.646 111.938 107.415 111.938 106.062Z" fill="#C8191C"/>
<path d="M104.246 109.077L104.431 107.969C104.369 107.969 104.246 108.031 104.123 108.031C103.693 108.031 103.631 107.785 103.693 107.662L104.062 105.446H104.739L104.923 104.216H104.308L104.431 103.477H103.139C103.139 103.477 102.4 107.662 102.4 108.154C102.4 108.892 102.831 109.262 103.446 109.262C103.816 109.262 104.123 109.139 104.246 109.077Z" fill="white"/>
<path d="M104.677 107.046C104.677 108.831 105.907 109.261 106.892 109.261C107.815 109.261 108.246 109.077 108.246 109.077L108.492 107.846C108.492 107.846 107.815 108.154 107.138 108.154C105.723 108.154 105.969 107.108 105.969 107.108H108.554C108.554 107.108 108.738 106.308 108.738 105.938C108.738 105.138 108.307 104.092 106.892 104.092C105.661 104.031 104.677 105.446 104.677 107.046ZM106.892 105.2C107.569 105.2 107.446 106 107.446 106.061H106.031C106.092 106 106.215 105.2 106.892 105.2Z" fill="white"/>
<path d="M114.954 109.077L115.2 107.662C115.2 107.662 114.584 107.969 114.092 107.969C113.231 107.969 112.8 107.292 112.8 106.492C112.8 104.954 113.538 104.154 114.461 104.154C115.077 104.154 115.631 104.523 115.631 104.523L115.815 103.169C115.815 103.169 115.077 102.862 114.338 102.862C112.861 102.862 111.446 104.154 111.446 106.554C111.446 108.154 112.184 109.2 113.723 109.2C114.277 109.262 114.954 109.077 114.954 109.077Z" fill="white"/>
<path d="M97.2918 104.031C96.4303 104.031 95.7534 104.277 95.7534 104.277L95.5687 105.385C95.5687 105.385 96.1226 105.138 96.9841 105.138C97.4149 105.138 97.7841 105.2 97.7841 105.569C97.7841 105.815 97.7226 105.877 97.7226 105.877H97.1687C96.061 105.877 94.8918 106.308 94.8918 107.785C94.8918 108.954 95.6303 109.2 96.1226 109.2C96.9841 109.2 97.4149 108.646 97.4764 108.646L97.4149 109.138H98.461L98.9534 105.631C98.9534 104.092 97.7226 104.031 97.2918 104.031ZM97.538 106.862C97.538 107.046 97.4149 108.092 96.6764 108.092C96.3072 108.092 96.1841 107.785 96.1841 107.6C96.1841 107.292 96.3687 106.862 97.3534 106.862C97.4764 106.862 97.538 106.862 97.538 106.862Z" fill="white"/>
<path d="M100.185 109.2C100.493 109.2 102.093 109.262 102.093 107.538C102.093 105.938 100.554 106.246 100.554 105.631C100.554 105.323 100.8 105.2 101.231 105.2C101.416 105.2 102.093 105.262 102.093 105.262L102.277 104.092C102.277 104.092 101.847 103.969 101.047 103.969C100.124 103.969 99.1389 104.338 99.1389 105.631C99.1389 107.108 100.739 106.985 100.739 107.538C100.739 107.908 100.308 107.969 100 107.969C99.4466 107.969 98.8313 107.785 98.8313 107.785L98.6466 108.954C98.7697 109.077 99.1389 109.2 100.185 109.2Z" fill="white"/>
<path d="M125.538 103.046L125.292 104.769C125.292 104.769 124.8 104.154 124.061 104.154C122.892 104.154 121.907 105.569 121.907 107.231C121.907 108.277 122.4 109.323 123.507 109.323C124.246 109.323 124.738 108.831 124.738 108.831L124.677 109.262H125.969L126.892 103.169L125.538 103.046ZM124.923 106.369C124.923 107.046 124.615 107.969 123.877 107.969C123.446 107.969 123.2 107.6 123.2 106.923C123.2 105.877 123.631 105.262 124.246 105.262C124.677 105.323 124.923 105.631 124.923 106.369Z" fill="white"/>
<path d="M90.339 109.138L91.0774 104.585L91.2005 109.138H92.062L93.7236 104.585L93.0466 109.138H94.4005L95.4466 103.046H93.3543L92.062 106.8L92.0005 103.046H90.1543L89.1082 109.138H90.339Z" fill="white"/>
<path d="M110.031 109.138C110.4 107.046 110.462 105.323 111.385 105.631C111.508 104.831 111.692 104.462 111.815 104.154H111.569C111.015 104.154 110.523 104.892 110.523 104.892L110.646 104.215H109.415L108.615 109.138H110.031Z" fill="white"/>
<path d="M117.907 104.031C117.046 104.031 116.369 104.277 116.369 104.277L116.184 105.385C116.184 105.385 116.738 105.138 117.6 105.138C118.03 105.138 118.4 105.2 118.4 105.569C118.4 105.815 118.338 105.877 118.338 105.877H117.784C116.676 105.877 115.507 106.308 115.507 107.785C115.507 108.954 116.246 109.2 116.738 109.2C117.6 109.2 118.03 108.646 118.092 108.646L118.03 109.138H119.2L119.692 105.631C119.692 104.092 118.338 104.031 117.907 104.031ZM118.215 106.862C118.215 107.046 118.092 108.092 117.353 108.092C116.984 108.092 116.861 107.785 116.861 107.6C116.861 107.292 117.046 106.862 118.03 106.862C118.153 106.862 118.153 106.862 118.215 106.862Z" fill="white"/>
<path d="M120.677 109.138C121.047 107.046 121.108 105.323 122.031 105.631C122.154 104.831 122.339 104.462 122.462 104.154H122.216C121.662 104.154 121.17 104.892 121.17 104.892L121.293 104.215H120.062L119.262 109.138H120.677Z" fill="white"/>
<rect x="76" y="148" width="63" height="48" rx="4" fill="#F2F2FA"/>
<path d="M124.31 165.535H121.796C121.035 165.535 120.451 165.769 120.1 166.529L115.304 177.465H118.696C118.696 177.465 119.281 176.003 119.398 175.652C119.749 175.652 123.082 175.652 123.55 175.652C123.667 176.061 123.959 177.406 123.959 177.406H127L124.31 165.535ZM120.334 173.196C120.626 172.494 121.62 169.862 121.62 169.862C121.62 169.921 121.913 169.161 122.029 168.751L122.263 169.804C122.263 169.804 122.907 172.669 123.024 173.254H120.334V173.196Z" fill="#3362AB"/>
<path d="M115.538 173.547C115.538 176.003 113.316 177.64 109.865 177.64C108.403 177.64 107 177.348 106.24 176.997L106.707 174.307L107.117 174.482C108.169 174.95 108.871 175.126 110.158 175.126C111.093 175.126 112.088 174.775 112.088 173.956C112.088 173.43 111.678 173.079 110.392 172.494C109.164 171.909 107.526 170.974 107.526 169.278C107.526 166.939 109.807 165.36 113.023 165.36C114.251 165.36 115.304 165.594 115.947 165.886L115.479 168.459L115.245 168.225C114.661 167.991 113.9 167.757 112.789 167.757C111.561 167.816 110.976 168.342 110.976 168.81C110.976 169.336 111.678 169.746 112.789 170.272C114.661 171.149 115.538 172.143 115.538 173.547Z" fill="#3362AB"/>
<path d="M87 165.652L87.0585 165.418H92.0877C92.7894 165.418 93.3158 165.652 93.4912 166.412L94.6023 171.675C93.4912 168.868 90.9181 166.588 87 165.652Z" fill="#F9B50B"/>
<path d="M101.679 165.535L96.5911 177.406H93.1408L90.2169 167.465C92.3221 168.81 94.0765 170.915 94.7198 172.377L95.0707 173.605L98.2285 165.477H101.679V165.535Z" fill="#3362AB"/>
<path d="M103.023 165.477H106.239L104.193 177.406H100.976L103.023 165.477Z" fill="#3362AB"/>
<rect x="238" y="82" width="63" height="48" rx="4" fill="#F2F2FA"/>
<path d="M272.467 105.498L269.681 102.42L266.586 105.184L269.371 108.324L272.467 105.498Z" fill="#137ABE"/>
<path d="M264.357 99.9082L267.143 102.986L270.238 100.222L267.452 97.1449L264.357 99.9082Z" fill="#137ABE"/>
<path d="M274.633 110.836L271.848 107.758L268.752 110.585L271.538 113.662L274.633 110.836Z" fill="#137ABE"/>
<path d="M271.414 115.986L266.338 110.271L267.762 109.014L264.171 104.995L265.595 103.739L262.005 99.7198L267.638 94.6329L269.433 96.5797L272.529 93.8792L274.324 95.7633L275.5 94.6957C275.252 94.57 274.943 94.3816 274.695 94.256C272.9 93.5024 270.981 93 268.938 93C261.819 93 256 98.8406 256 106C256 113.159 261.819 119 269 119C271.352 119 273.519 118.372 275.376 117.304C275.995 116.928 276.552 116.551 277.11 116.174L274.51 113.222L271.414 115.986Z" fill="#137ABE"/>
<path d="M270.052 98.401L272.095 100.725L274.448 98.6522L272.343 96.3285L270.052 98.401Z" fill="#137ABE"/>
<path d="M276.552 103.3L274.448 100.976L272.157 103.111L274.262 105.372L276.552 103.3Z" fill="#137ABE"/>
<path d="M278.533 108.198L276.429 105.874L274.138 107.947L276.243 110.333L278.533 108.198Z" fill="#137ABE"/>
<path d="M278.657 100.536L277.11 101.918L278.533 103.488L280.019 102.106L278.657 100.536Z" fill="#137ABE"/>
<path d="M279.09 106.502L280.452 108.072L282 106.691L280.576 105.121L279.09 106.502Z" fill="#137ABE"/>
<path d="M275.129 97.3333L276.552 98.9034L278.038 97.5217L276.676 95.9517L275.129 97.3333Z" fill="#137ABE"/>
<path d="M276.181 112.657L278.286 114.981L280.576 112.908L278.471 110.585L276.181 112.657Z" fill="#137ABE"/>
<rect x="238" y="148" width="63" height="48" rx="4" fill="#F9EA63"/>
<path d="M270.5 164H268.5V170.5H262V172.5H268.5V179H270.5V172.5H277V170.5H270.5V164Z" fill="#212832"/>
<path d="M83.1631 42.7676C81.9561 42.7676 81.0068 43.1953 80.3154 44.0508C79.624 44.9062 79.2783 46.0869 79.2783 47.5928C79.2783 49.1689 79.6094 50.3613 80.2715 51.1699C80.9395 51.9785 81.9033 52.3828 83.1631 52.3828C83.708 52.3828 84.2354 52.3301 84.7451 52.2246C85.2549 52.1133 85.7852 51.9727 86.3359 51.8027V53.6045C85.3281 53.9854 84.1855 54.1758 82.9082 54.1758C81.0273 54.1758 79.583 53.6074 78.5752 52.4707C77.5674 51.3281 77.0635 49.6963 77.0635 47.5752C77.0635 46.2393 77.3066 45.0703 77.793 44.0684C78.2852 43.0664 78.9941 42.2988 79.9199 41.7656C80.8457 41.2324 81.9326 40.9658 83.1807 40.9658C84.4932 40.9658 85.7061 41.2412 86.8193 41.792L86.0635 43.541C85.6299 43.3359 85.1699 43.1572 84.6836 43.0049C84.2031 42.8467 83.6963 42.7676 83.1631 42.7676ZM97.4365 54H95.3623V48.0234C95.3623 47.2734 95.21 46.7139 94.9053 46.3447C94.6064 45.9756 94.1289 45.791 93.4727 45.791C92.6055 45.791 91.9668 46.0518 91.5566 46.5732C91.1523 47.0889 90.9502 47.9561 90.9502 49.1748V54H88.8848V40.3242H90.9502V43.7959C90.9502 44.3525 90.915 44.9473 90.8447 45.5801H90.9766C91.2578 45.1113 91.6475 44.748 92.1455 44.4902C92.6494 44.2324 93.2354 44.1035 93.9033 44.1035C96.2588 44.1035 97.4365 45.29 97.4365 47.6631V54ZM108.933 49.1221C108.933 50.71 108.525 51.9492 107.711 52.8398C106.896 53.7305 105.763 54.1758 104.31 54.1758C103.401 54.1758 102.599 53.9707 101.901 53.5605C101.204 53.1504 100.668 52.5615 100.293 51.7939C99.918 51.0264 99.7305 50.1357 99.7305 49.1221C99.7305 47.5459 100.135 46.3154 100.943 45.4307C101.752 44.5459 102.892 44.1035 104.362 44.1035C105.769 44.1035 106.882 44.5576 107.702 45.4658C108.522 46.3682 108.933 47.5869 108.933 49.1221ZM101.857 49.1221C101.857 51.3662 102.687 52.4883 104.345 52.4883C105.985 52.4883 106.806 51.3662 106.806 49.1221C106.806 46.9014 105.979 45.791 104.327 45.791C103.46 45.791 102.83 46.0781 102.438 46.6523C102.051 47.2266 101.857 48.0498 101.857 49.1221ZM119.937 49.1221C119.937 50.71 119.529 51.9492 118.715 52.8398C117.9 53.7305 116.767 54.1758 115.313 54.1758C114.405 54.1758 113.603 53.9707 112.905 53.5605C112.208 53.1504 111.672 52.5615 111.297 51.7939C110.922 51.0264 110.734 50.1357 110.734 49.1221C110.734 47.5459 111.139 46.3154 111.947 45.4307C112.756 44.5459 113.896 44.1035 115.366 44.1035C116.772 44.1035 117.886 44.5576 118.706 45.4658C119.526 46.3682 119.937 47.5869 119.937 49.1221ZM112.861 49.1221C112.861 51.3662 113.69 52.4883 115.349 52.4883C116.989 52.4883 117.81 51.3662 117.81 49.1221C117.81 46.9014 116.983 45.791 115.331 45.791C114.464 45.791 113.834 46.0781 113.441 46.6523C113.055 47.2266 112.861 48.0498 112.861 49.1221ZM128.849 51.2314C128.849 52.1807 128.503 52.9102 127.812 53.4199C127.12 53.9238 126.13 54.1758 124.841 54.1758C123.546 54.1758 122.506 53.9795 121.721 53.5869V51.8027C122.863 52.3301 123.927 52.5938 124.911 52.5938C126.183 52.5938 126.818 52.21 126.818 51.4424C126.818 51.1963 126.748 50.9912 126.607 50.8271C126.467 50.6631 126.235 50.4932 125.913 50.3174C125.591 50.1416 125.143 49.9424 124.568 49.7197C123.449 49.2861 122.69 48.8525 122.292 48.4189C121.899 47.9854 121.703 47.4229 121.703 46.7314C121.703 45.8994 122.037 45.2549 122.705 44.7979C123.379 44.335 124.293 44.1035 125.447 44.1035C126.59 44.1035 127.671 44.335 128.69 44.7979L128.022 46.3535C126.974 45.9199 126.092 45.7031 125.377 45.7031C124.287 45.7031 123.742 46.0137 123.742 46.6348C123.742 46.9395 123.883 47.1973 124.164 47.4082C124.451 47.6191 125.072 47.9092 126.027 48.2783C126.83 48.5889 127.413 48.873 127.776 49.1309C128.14 49.3887 128.409 49.6875 128.585 50.0273C128.761 50.3613 128.849 50.7627 128.849 51.2314ZM135.335 54.1758C133.823 54.1758 132.64 53.7363 131.784 52.8574C130.935 51.9727 130.51 50.7568 130.51 49.21C130.51 47.6221 130.905 46.374 131.696 45.4658C132.487 44.5576 133.574 44.1035 134.957 44.1035C136.24 44.1035 137.254 44.4932 137.998 45.2725C138.742 46.0518 139.114 47.124 139.114 48.4893V49.6055H132.637C132.666 50.5488 132.921 51.2754 133.401 51.7852C133.882 52.2891 134.559 52.541 135.432 52.541C136.006 52.541 136.539 52.4883 137.031 52.3828C137.529 52.2715 138.062 52.0898 138.631 51.8379V53.5166C138.127 53.7568 137.617 53.9268 137.102 54.0264C136.586 54.126 135.997 54.1758 135.335 54.1758ZM134.957 45.668C134.301 45.668 133.773 45.876 133.375 46.292C132.982 46.708 132.748 47.3145 132.672 48.1113H137.084C137.072 47.3086 136.879 46.7021 136.504 46.292C136.129 45.876 135.613 45.668 134.957 45.668ZM151.067 54.1758C149.837 54.1758 148.882 53.7334 148.202 52.8486H148.079C148.161 53.6689 148.202 54.167 148.202 54.3428V58.3242H146.137V44.2793H147.807C147.854 44.4609 147.95 44.8945 148.097 45.5801H148.202C148.847 44.5957 149.813 44.1035 151.103 44.1035C152.315 44.1035 153.259 44.543 153.933 45.4219C154.612 46.3008 154.952 47.5342 154.952 49.1221C154.952 50.71 154.606 51.9492 153.915 52.8398C153.229 53.7305 152.28 54.1758 151.067 54.1758ZM150.566 45.791C149.746 45.791 149.146 46.0312 148.765 46.5117C148.39 46.9922 148.202 47.7598 148.202 48.8145V49.1221C148.202 50.3057 148.39 51.1641 148.765 51.6973C149.14 52.2246 149.752 52.4883 150.602 52.4883C151.316 52.4883 151.867 52.1953 152.254 51.6094C152.641 51.0234 152.834 50.1885 152.834 49.1045C152.834 48.0146 152.641 47.1914 152.254 46.6348C151.873 46.0723 151.311 45.791 150.566 45.791ZM163.434 54L163.021 52.6465H162.95C162.481 53.2383 162.01 53.6426 161.535 53.8594C161.061 54.0703 160.451 54.1758 159.707 54.1758C158.752 54.1758 158.005 53.918 157.466 53.4023C156.933 52.8867 156.666 52.1572 156.666 51.2139C156.666 50.2119 157.038 49.4561 157.782 48.9463C158.526 48.4365 159.66 48.1582 161.184 48.1113L162.862 48.0586V47.54C162.862 46.9189 162.716 46.4561 162.423 46.1514C162.136 45.8408 161.688 45.6855 161.078 45.6855C160.58 45.6855 160.103 45.7588 159.646 45.9053C159.188 46.0518 158.749 46.2246 158.327 46.4238L157.659 44.9473C158.187 44.6719 158.764 44.4639 159.391 44.3232C160.018 44.1768 160.609 44.1035 161.166 44.1035C162.402 44.1035 163.334 44.373 163.961 44.9121C164.594 45.4512 164.91 46.2979 164.91 47.4521V54H163.434ZM160.357 52.5938C161.107 52.5938 161.708 52.3857 162.159 51.9697C162.616 51.5479 162.845 50.959 162.845 50.2031V49.3594L161.597 49.4121C160.624 49.4473 159.915 49.6113 159.47 49.9043C159.03 50.1914 158.811 50.6338 158.811 51.2314C158.811 51.665 158.939 52.002 159.197 52.2422C159.455 52.4766 159.842 52.5938 160.357 52.5938ZM166.316 44.2793H168.566L170.544 49.79C170.843 50.5752 171.042 51.3135 171.142 52.0049H171.212C171.265 51.6826 171.361 51.293 171.502 50.8359C171.643 50.373 172.387 48.1875 173.734 44.2793H175.967L171.81 55.292C171.054 57.3135 169.794 58.3242 168.03 58.3242C167.573 58.3242 167.128 58.2744 166.694 58.1748V56.54C167.005 56.6104 167.359 56.6455 167.758 56.6455C168.754 56.6455 169.454 56.0684 169.858 54.9141L170.219 54L166.316 44.2793ZM185.635 54H183.561V48.0059C183.561 47.2617 183.42 46.708 183.139 46.3447C182.857 45.9756 182.418 45.791 181.82 45.791C181.023 45.791 180.438 46.0518 180.062 46.5732C179.693 47.0889 179.509 47.9502 179.509 49.1572V54H177.443V44.2793H179.061L179.351 45.5537H179.456C179.726 45.0908 180.115 44.7334 180.625 44.4814C181.141 44.2295 181.706 44.1035 182.321 44.1035C183.815 44.1035 184.806 44.6133 185.292 45.6328H185.433C185.72 45.1523 186.124 44.7773 186.646 44.5078C187.167 44.2383 187.765 44.1035 188.438 44.1035C189.599 44.1035 190.442 44.3965 190.97 44.9824C191.503 45.5684 191.77 46.4619 191.77 47.6631V54H189.704V48.0059C189.704 47.2617 189.561 46.708 189.273 46.3447C188.992 45.9756 188.553 45.791 187.955 45.791C187.152 45.791 186.563 46.043 186.188 46.5469C185.819 47.0449 185.635 47.8125 185.635 48.8496V54ZM198.897 54.1758C197.386 54.1758 196.202 53.7363 195.347 52.8574C194.497 51.9727 194.072 50.7568 194.072 49.21C194.072 47.6221 194.468 46.374 195.259 45.4658C196.05 44.5576 197.137 44.1035 198.52 44.1035C199.803 44.1035 200.816 44.4932 201.561 45.2725C202.305 46.0518 202.677 47.124 202.677 48.4893V49.6055H196.199C196.229 50.5488 196.483 51.2754 196.964 51.7852C197.444 52.2891 198.121 52.541 198.994 52.541C199.568 52.541 200.102 52.4883 200.594 52.3828C201.092 52.2715 201.625 52.0898 202.193 51.8379V53.5166C201.689 53.7568 201.18 53.9268 200.664 54.0264C200.148 54.126 199.56 54.1758 198.897 54.1758ZM198.52 45.668C197.863 45.668 197.336 45.876 196.938 46.292C196.545 46.708 196.311 47.3145 196.234 48.1113H200.646C200.635 47.3086 200.441 46.7021 200.066 46.292C199.691 45.876 199.176 45.668 198.52 45.668ZM213.575 54H211.501V48.0234C211.501 47.2734 211.349 46.7139 211.044 46.3447C210.745 45.9756 210.268 45.791 209.611 45.791C208.738 45.791 208.1 46.0488 207.695 46.5645C207.291 47.0801 207.089 47.9443 207.089 49.1572V54H205.023V44.2793H206.641L206.931 45.5537H207.036C207.329 45.0908 207.745 44.7334 208.284 44.4814C208.823 44.2295 209.421 44.1035 210.077 44.1035C212.409 44.1035 213.575 45.29 213.575 47.6631V54ZM220.07 52.5059C220.574 52.5059 221.078 52.4268 221.582 52.2686V53.8242C221.354 53.9238 221.058 54.0059 220.694 54.0703C220.337 54.1406 219.965 54.1758 219.578 54.1758C217.621 54.1758 216.643 53.1445 216.643 51.082V45.8438H215.315V44.9297L216.739 44.1738L217.442 42.1172H218.717V44.2793H221.485V45.8438H218.717V51.0469C218.717 51.5449 218.84 51.9141 219.086 52.1543C219.338 52.3887 219.666 52.5059 220.07 52.5059ZM236.4 54H234.326V48.0059C234.326 47.2617 234.186 46.708 233.904 46.3447C233.623 45.9756 233.184 45.791 232.586 45.791C231.789 45.791 231.203 46.0518 230.828 46.5732C230.459 47.0889 230.274 47.9502 230.274 49.1572V54H228.209V44.2793H229.826L230.116 45.5537H230.222C230.491 45.0908 230.881 44.7334 231.391 44.4814C231.906 44.2295 232.472 44.1035 233.087 44.1035C234.581 44.1035 235.571 44.6133 236.058 45.6328H236.198C236.485 45.1523 236.89 44.7773 237.411 44.5078C237.933 44.2383 238.53 44.1035 239.204 44.1035C240.364 44.1035 241.208 44.3965 241.735 44.9824C242.269 45.5684 242.535 46.4619 242.535 47.6631V54H240.47V48.0059C240.47 47.2617 240.326 46.708 240.039 46.3447C239.758 45.9756 239.318 45.791 238.721 45.791C237.918 45.791 237.329 46.043 236.954 46.5469C236.585 47.0449 236.4 47.8125 236.4 48.8496V54ZM249.663 54.1758C248.151 54.1758 246.968 53.7363 246.112 52.8574C245.263 51.9727 244.838 50.7568 244.838 49.21C244.838 47.6221 245.233 46.374 246.024 45.4658C246.815 44.5576 247.902 44.1035 249.285 44.1035C250.568 44.1035 251.582 44.4932 252.326 45.2725C253.07 46.0518 253.442 47.124 253.442 48.4893V49.6055H246.965C246.994 50.5488 247.249 51.2754 247.729 51.7852C248.21 52.2891 248.887 52.541 249.76 52.541C250.334 52.541 250.867 52.4883 251.359 52.3828C251.857 52.2715 252.391 52.0898 252.959 51.8379V53.5166C252.455 53.7568 251.945 53.9268 251.43 54.0264C250.914 54.126 250.325 54.1758 249.663 54.1758ZM249.285 45.668C248.629 45.668 248.102 45.876 247.703 46.292C247.311 46.708 247.076 47.3145 247 48.1113H251.412C251.4 47.3086 251.207 46.7021 250.832 46.292C250.457 45.876 249.941 45.668 249.285 45.668ZM259.41 52.5059C259.914 52.5059 260.418 52.4268 260.922 52.2686V53.8242C260.693 53.9238 260.397 54.0059 260.034 54.0703C259.677 54.1406 259.305 54.1758 258.918 54.1758C256.961 54.1758 255.982 53.1445 255.982 51.082V45.8438H254.655V44.9297L256.079 44.1738L256.782 42.1172H258.057V44.2793H260.825V45.8438H258.057V51.0469C258.057 51.5449 258.18 51.9141 258.426 52.1543C258.678 52.3887 259.006 52.5059 259.41 52.5059ZM271.425 54H269.351V48.0234C269.351 47.2734 269.198 46.7139 268.894 46.3447C268.595 45.9756 268.117 45.791 267.461 45.791C266.594 45.791 265.955 46.0518 265.545 46.5732C265.141 47.0889 264.938 47.9561 264.938 49.1748V54H262.873V40.3242H264.938V43.7959C264.938 44.3525 264.903 44.9473 264.833 45.5801H264.965C265.246 45.1113 265.636 44.748 266.134 44.4902C266.638 44.2324 267.224 44.1035 267.892 44.1035C270.247 44.1035 271.425 45.29 271.425 47.6631V54ZM282.921 49.1221C282.921 50.71 282.514 51.9492 281.699 52.8398C280.885 53.7305 279.751 54.1758 278.298 54.1758C277.39 54.1758 276.587 53.9707 275.89 53.5605C275.192 53.1504 274.656 52.5615 274.281 51.7939C273.906 51.0264 273.719 50.1357 273.719 49.1221C273.719 47.5459 274.123 46.3154 274.932 45.4307C275.74 44.5459 276.88 44.1035 278.351 44.1035C279.757 44.1035 280.87 44.5576 281.69 45.4658C282.511 46.3682 282.921 47.5869 282.921 49.1221ZM275.846 49.1221C275.846 51.3662 276.675 52.4883 278.333 52.4883C279.974 52.4883 280.794 51.3662 280.794 49.1221C280.794 46.9014 279.968 45.791 278.315 45.791C277.448 45.791 276.818 46.0781 276.426 46.6523C276.039 47.2266 275.846 48.0498 275.846 49.1221ZM288.581 54.1758C287.368 54.1758 286.422 53.7363 285.742 52.8574C285.062 51.9785 284.723 50.7451 284.723 49.1572C284.723 47.5635 285.065 46.3242 285.751 45.4395C286.442 44.5488 287.397 44.1035 288.616 44.1035C289.894 44.1035 290.866 44.5752 291.534 45.5186H291.64C291.54 44.8213 291.49 44.2705 291.49 43.8662V40.3242H293.564V54H291.947L291.587 52.7256H291.49C290.828 53.6924 289.858 54.1758 288.581 54.1758ZM289.135 52.5059C289.984 52.5059 290.603 52.2686 290.989 51.7939C291.376 51.3135 291.575 50.5371 291.587 49.4648V49.1748C291.587 47.9502 291.388 47.0801 290.989 46.5645C290.591 46.0488 289.967 45.791 289.117 45.791C288.391 45.791 287.831 46.0869 287.438 46.6787C287.046 47.2646 286.85 48.1025 286.85 49.1924C286.85 50.2705 287.04 51.0938 287.421 51.6621C287.802 52.2246 288.373 52.5059 289.135 52.5059ZM296.21 52.9014C296.21 52.4736 296.321 52.1455 296.544 51.917C296.767 51.6885 297.089 51.5742 297.511 51.5742C297.938 51.5742 298.264 51.6943 298.486 51.9346C298.709 52.1689 298.82 52.4912 298.82 52.9014C298.82 53.3174 298.706 53.6484 298.478 53.8945C298.255 54.1348 297.933 54.2549 297.511 54.2549C297.089 54.2549 296.767 54.1348 296.544 53.8945C296.321 53.6543 296.21 53.3232 296.21 52.9014ZM296.21 45.3955C296.21 44.5107 296.644 44.0684 297.511 44.0684C297.95 44.0684 298.278 44.1855 298.495 44.4199C298.712 44.6543 298.82 44.9795 298.82 45.3955C298.82 45.8115 298.706 46.1426 298.478 46.3887C298.255 46.6289 297.933 46.749 297.511 46.749C297.089 46.749 296.767 46.6289 296.544 46.3887C296.321 46.1484 296.21 45.8174 296.21 45.3955Z" fill="#212832"/>
<defs>
<filter id="filter0_d_2_144" x="0" y="0" width="377" height="316" filterUnits="userSpaceOnUse" color-interpolation-filters="sRGB">
<feFlood flood-opacity="0" result="BackgroundImageFix"/>
<feColorMatrix in="SourceAlpha" type="matrix" values="0 0 0 0 0 0 0 0 0 0 0 0 0 0 0 0 0 0 127 0" result="hardAlpha"/>
<feOffset dy="44"/>
<feGaussianBlur stdDeviation="24"/>
<feColorMatrix type="matrix" values="0 0 0 0 0 0 0 0 0 0 0 0 0 0 0 0 0 0 0.1 0"/>
<feBlend mode="normal" in2="BackgroundImageFix" result="effect1_dropShadow_2_144"/>
<feBlend mode="normal" in="SourceGraphic" in2="effect1_dropShadow_2_144" result="shape"/>
</filter>
</defs>
</svg>
